<svg xmlns="http://www.w3.org/2000/svg" width="145" height="96" viewBox="0 0 145 96" fill="none"><g clip-path="url(#clip0_1_1491)"><path d="M130.965 88.6212C131.321 88.6026 131.858 88.4981 132.208 88.4323C132.725 88.3345 133.231 88.1726 133.711 87.9517C135.012 87.3614 136.612 85.9346 137.231 83.9715C137.431 83.3374 137.54 82.6763 137.553 82.0085C137.556 81.8668 137.553 81.7218 137.553 81.5801V74.0162C137.553 73.8594 137.558 73.5642 137.553 73.4057C137.553 73.4057 137.478 73.4529 137.431 73.4816C137.34 73.5423 137.243 73.5946 137.146 73.6452C136.319 74.0752 135.449 74.4176 134.552 74.6655C133.746 74.8932 132.922 75.0433 132.088 75.1107C131.594 75.1546 131.099 75.1715 130.603 75.1596C128.466 75.1006 126.436 74.6132 124.546 73.5625C122.25 72.2825 119.883 69.913 118.672 67.0291C118.23 65.9801 117.925 64.8755 117.763 63.7455C117.651 62.9461 117.596 62.1366 117.601 61.3288L117.512 51.7883L104.362 51.9064V75.1495H97.6252V33.4275C97.6219 32.7782 97.6553 32.1272 97.727 31.4813C98.0006 29.046 98.8497 26.8469 100.328 24.9125C101.194 23.7724 102.226 22.7723 103.387 21.9476C104.857 20.907 106.527 20.2004 108.285 19.8766C108.988 19.7434 109.697 19.6843 110.407 19.6388C110.516 19.6321 110.911 19.6321 111.018 19.6337L111.046 26.4809C110.821 26.491 110.457 26.523 110.237 26.5399C110.054 26.5635 109.869 26.5854 109.687 26.6192C108.614 26.8165 107.611 27.3022 106.784 28.0274C105.99 28.7087 105.351 29.5149 104.924 30.488C104.617 31.1828 104.435 31.9299 104.392 32.6905C104.377 32.9604 104.373 33.2302 104.373 33.4984L104.413 45.9193L124.351 45.9227L124.361 61.8381C124.406 63.334 124.898 64.6562 125.832 65.8047C126.591 66.734 127.505 67.4457 128.626 67.8639C129.222 68.0916 129.848 68.2214 130.485 68.2484C131.042 68.2687 131.598 68.2585 132.151 68.1624C133.209 67.9786 134.203 67.5165 135.037 66.8233C135.535 66.4169 135.977 65.9447 136.352 65.4202C137.138 64.324 137.523 63.0895 137.567 61.7386C137.575 61.5008 137.57 61.263 137.57 61.0252V45.9902L144.169 45.9598V80.1871C144.159 80.7116 144.163 84.4016 143.908 85.7204C143.475 87.3985 142.676 88.7561 141.637 90.1255C140.81 91.2167 139.832 92.1797 138.734 92.9824C137.038 94.222 135.154 94.9725 133.092 95.271C132.602 95.3418 132.106 95.3705 131.614 95.4127C131.446 95.4278 131.154 95.4127 130.985 95.4127L130.972 88.6178L130.965 88.6212Z" fill="white" stroke="white" stroke-width="0.0470132" stroke-miterlimit="10"></path><path d="M71.286 47.591C71.2827 47.9705 71.2593 48.355 71.2293 48.7294C71.1242 50.1561 70.7905 51.5526 70.25 52.8714C69.0322 55.8295 67.0537 58.1197 64.3861 59.791C62.6445 60.8805 60.756 61.5467 58.7374 61.8368C58.1869 61.9228 57.6347 61.9683 57.0759 61.9717H51.0234V33.2188H56.8373C58.7174 33.2188 60.5241 33.5982 62.2691 34.3116C63.869 34.9609 65.342 35.907 66.6166 37.0892C68.7603 39.081 70.2117 41.5061 70.9073 44.3917C71.0958 45.1591 71.2109 45.945 71.246 46.7359C71.256 47.0193 71.2893 47.3043 71.286 47.5876V47.591Z" fill="white"></path><path d="M46.8592 0.726562C21.1999 0.726562 0.398438 22.0404 0.398438 48.3293C0.398438 74.6183 21.2015 95.9338 46.8609 95.9338C72.5203 95.9338 93.3217 74.6217 93.3217 48.3293C93.3217 22.037 72.5186 0.726562 46.8592 0.726562ZM29.6913 75.2086H16.5538V32.5219C16.5538 25.6073 22.0223 20.0065 28.772 20.0065H29.6913V75.2102V75.2086ZM84.1897 50.2688C84.0979 51.1812 83.9661 52.0936 83.791 52.9958C83.504 54.4361 83.1053 55.8544 82.5915 57.2323C81.5588 60.0099 80.0958 62.5936 78.249 64.8889C74.4905 69.5622 69.3706 72.888 63.6352 74.3704C62.7643 74.5997 61.8868 74.7802 60.9977 74.9168C60.4605 74.9927 59.925 75.0618 59.3844 75.1158C58.909 75.1647 58.4302 75.1748 57.9514 75.2102C57.0672 75.2828 56.1898 75.2642 55.3056 75.2642H38.0008L38.0575 31.3127C38.1543 30.1574 38.4179 29.0224 38.8316 27.9481C39.5006 26.1925 40.5499 24.6106 41.8945 23.3238C43.2391 22.037 44.8523 21.0757 46.6107 20.5141C47.4064 20.2578 48.2272 20.0908 49.063 20.0031C49.4951 19.9626 49.9288 19.9407 50.3592 19.9407C52.4512 19.9306 54.5382 19.9306 56.6318 19.9407C57.4977 19.9441 58.3635 19.9862 59.2243 20.0621C65.1182 20.5866 70.6919 23.0202 75.1344 27.0138C77.4099 29.0545 79.3401 31.4712 80.8398 34.1628C82.1628 36.534 83.1253 39.0958 83.7025 41.7605C83.9494 42.9073 84.1246 44.0676 84.2214 45.238C84.2964 46.1858 84.3632 47.1353 84.3231 48.0882C84.2914 48.8134 84.2597 49.5402 84.1897 50.2688Z" fill="white" stroke="#CE1010" stroke-width="0.0470132" stroke-miterlimit="10"></path><path d="M84.2206 45.2385C84.1238 44.0697 83.947 42.9078 83.7017 41.761C83.1262 39.0963 82.1636 36.5362 80.839 34.1633C79.3409 31.4717 77.4108 29.055 75.1336 27.0143C70.691 23.0207 65.1174 20.5871 59.2235 20.0626C58.3627 19.9867 57.4952 19.9446 56.631 19.9412C54.539 19.9311 52.4521 19.9311 50.3584 19.9412C49.9263 19.9412 49.4926 19.9648 49.0622 20.0036C48.228 20.0896 47.4056 20.2566 46.6098 20.5146C44.8515 21.0745 43.2383 22.0375 41.8937 23.3243C40.5491 24.6111 39.4981 26.193 38.8308 27.9486C38.4187 29.0246 38.1551 30.1579 38.0567 31.3132L38 75.2647H55.3048C56.1889 75.2647 57.0664 75.2833 57.9506 75.2107C58.4294 75.1753 58.9082 75.1652 59.3836 75.1163C59.9242 75.0623 60.4613 74.9949 60.9968 74.9173C61.8843 74.7824 62.7635 74.6019 63.6343 74.3709C69.3698 72.8901 74.4913 69.5661 78.2482 64.8894C80.095 62.5958 81.558 60.0121 82.5907 57.2328C83.1045 55.8549 83.5049 54.4366 83.7902 52.9963C83.9653 52.0941 84.0971 51.1817 84.1889 50.2693C84.2589 49.5424 84.2906 48.8155 84.3207 48.087C84.3607 47.1341 84.2956 46.1863 84.2206 45.2385ZM71.2366 48.7312C71.1315 50.158 70.7978 51.5544 70.2573 52.8732C69.0395 55.8313 67.0609 58.1216 64.3934 59.7929C62.6517 60.8823 60.7633 61.5485 58.7447 61.8386C58.1942 61.9246 57.642 61.9701 57.0831 61.9735H51.0307V33.2206H56.8446C58.7247 33.2206 60.5314 33.6 62.2764 34.3134C63.8762 34.9627 65.3493 35.9088 66.6239 37.0911C68.7676 39.0828 70.2189 41.508 70.9146 44.3936C71.1031 45.1609 71.2182 45.9468 71.2533 46.7378C71.2633 47.0228 71.2966 47.3061 71.2933 47.5911C71.2883 47.9689 71.2666 48.3534 71.2366 48.7278V48.7312Z" fill="#CE1010"></path><path d="M29.6844 20.0078V75.2099H16.5469V32.5232C16.5469 25.6086 22.0154 20.0078 28.7651 20.0078H29.6844Z" fill="#CE1010"></path></g><defs><clipPath id="clip0_1_1491"><rect width="143.902" height="95.3354" fill="white" transform="translate(0.328125 0.664062)"></rect></clipPath></defs></svg>